<?xml version="1.0" encoding="UTF-8"?>
<svg id="b" data-name="Layer 2" xmlns="http://www.w3.org/2000/svg" viewBox="0 0 342.11 409.6">
  <g id="c" data-name="Layer 1">
    <path d="m0,342.22C-.19,324.9,50.96,35.8,54.86,13.82c.67-1.94,2.05-5.02,4.9-7.84C65.41.38,72.59.03,74.45,0h152.57c3.08.06,7.51.33,12.73,1.33,17.58,3.34,29.41,12.02,35.27,16.41,4.95,3.71,14.27,10.84,22.29,23.51,1.5,2.38,7.85,12.67,11.27,27.92,3.31,14.79,2.37,27.54.98,36-1.76-1.09-4.26-2.57-7.35-4.16-3.93-2.03-9.94-5.09-18.12-7.35-3.92-1.08-9.32-2.24-15.92-2.69-37.96.16-75.92.33-113.88.49-2.56.47-6.1,1.46-9.8,3.67-7.61,4.55-11.01,11.34-12.24,14.2-7.4,44.3-14.8,88.61-22.2,132.91-5.91,35.37-11.81,70.74-17.72,106.11-.39,1.66-1.23,4.17-3.18,6.61-4.34,5.44-10.76,6.22-12.24,6.37-20.41.33-40.82.65-61.22.98-3.78-1.1-8.91-3.3-12.24-8.08,0,0-3.35-4.8-3.43-12Z" fill="#002987"/>
    <path d="m118.53,231.65l10.65-3.31c10.16-.12,20.33-.24,30.49-.37,6.73.12,13.47.24,20.2.37,4.74-.3,9.78-.88,15.06-1.84,22.17-4.01,41.62-14.91,49.22-19.47,4.68-2.81,16.98-10.31,27.92-20.94,27.89-27.1,35.4-63.4,37.74-80.76-1.95-1.37-4.05-2.72-6.31-4.01-12.2-6.97-24.31-9.56-33.8-10.44-38.47.17-76.93.34-115.4.52-.67.1-1.35.23-2.04.4-8.39,1.98-13.57,7.52-14.9,9.04-1.48,1.68-3.56,4.43-5.17,8.38-7.43,44.13-14.85,88.26-22.28,132.39.69-1.68,1.96-4.19,4.32-6.61,1.51-1.55,3.04-2.62,4.27-3.35Z" fill="#00186a"/>
    <path d="m85.35,388.14c1.91-13.42,3.9-26.93,6-40.53,5.52-35.84,11.51-70.91,17.88-105.18.58-2.01,1.84-5.23,4.65-8.2,6.02-6.35,14.28-6.37,15.9-6.34h51.61c1.34-.08,2.71-.19,4.09-.32,12.5-1.21,21.74-4.21,26.66-5.83,17.59-5.81,31.47-14.57,35.88-17.45,13.65-8.92,24.16-18.77,32.01-27.55,2.08-2.63,4.79-6.25,7.67-10.74,1.49-2.32,7.47-11.83,12.86-25.99,3.19-8.38,6.79-20.03,8.82-34.44,1.13.93,2.73,2.27,4.59,3.95,3.42,3.08,10.27,9.25,15.52,16.62,7.98,11.2,10.22,22.01,10.65,24.06.8,3.83,1.21,7.71,1.38,9.28.66,6.32.65,11.49.55,14.79-.17,5.58-.74,9.76-1.1,12.4-.52,3.76-1.16,8.27-2.76,13.96-.64,2.27-1.4,4.45-2.94,8.82-2.1,5.96-3.14,8.95-4.22,11.48-3.25,7.61-6.94,12.96-10.1,17.54-3.37,4.89-6.38,8.5-8.08,10.47-2.62,3.03-4.88,5.35-6.24,6.7-2.5,2.48-7.54,7.26-14.6,12.31-2.32,1.66-11.93,8.4-26.27,14.23-4.13,1.68-10.71,4.32-19.84,6.34-7.96,1.75-14.92,2.38-20.3,2.57-7.93.12-15.86.24-23.79.37-2.62.83-4.75,1.82-6.34,2.66-3.97,2.12-6.54,4.4-7.26,5.05-1.14,1.04-2.74,2.52-4.32,4.78-2.09,3-2.9,5.68-3.95,9.18-.69,2.3-1.47,5.48-1.93,9.37l-12.67,75.12c-.43,1.02-1,2.14-1.74,3.31-.28.44-.97,1.47-2.02,2.66-.34.39-1.4,1.58-2.66,2.57-1.02.8-3.12,2.21-6.52,2.94-18.24.17-36.49.35-54.73.52-2.44-1.32-4.51-2.54-6.15-3.55-1.75-1.08-2.65-1.69-3.4-2.85-.54-.83-.67-1.41-1.38-3.21-.62-1.57-1.19-2.8-1.56-3.58.05-2.76.1-5.51.15-8.27Z" fill="#0085cc"/>
  </g>
</svg>