<?xml version="1.0" encoding="UTF-8"?>
<svg id="a" data-name="Layer 1" xmlns="http://www.w3.org/2000/svg" viewBox="0 0 409.6 409.6">
  <path d="m131.74,409.6H0C0,273.07,0,136.53,0,0c136.53,0,273.07,0,409.6,0v409.6c-72.92,0-145.85,0-218.77,0,.77-1.16,1.3-2.61,2.34-3.44,3.67-2.91,5.83-6.48,6.5-11.2,1.44-10.21,3.09-20.39,4.77-30.56,2.06-12.44,4.03-24.9,6.43-37.28,1.35-6.96,2.44-14.28,5.54-20.49,3.32-6.67,9.21-12.29,17.1-13.38,7.82-1.09,15.85-.55,23.76-1.08,5.87-.39,11.78-.99,17.55-2.12,15.94-3.13,31.3-7.9,44.75-17.5,10.16-7.26,20.37-14.44,27.83-24.73,4.11-5.67,9.34-10.49,12.26-17.08,3.05-6.88,7.1-13.35,9.68-20.38,2.36-6.45,4.09-13.34,4.75-20.16,1-10.26,1.65-20.69.93-30.94-.77-11.16-5.02-21.6-11.15-31.04-5.43-8.35-12.07-15.64-20.42-21.23-.19-.45-.57-.91-.54-1.35.37-6.16,1.38-12.35,1.04-18.47-.31-5.7.44-11.52-2.07-17.15-3.65-8.18-6.11-16.91-9.98-24.97-4.92-10.23-12.83-18.26-21.81-25.05-5.05-3.81-10.33-7.62-16.08-10.09-5.47-2.35-10.37-6.09-16.92-6.33-9.91-.37-19.76-2.36-29.67-2.62-17.28-.46-34.58-.13-51.87-.13-28.73,0-57.46-.1-86.19.05-10.62.06-18.22,4.8-20.67,16.09-.85,3.9-1.05,7.94-1.72,11.88-2.61,15.46-5.54,30.87-7.85,46.37-1.95,13.1-4.75,26.04-6.61,39.15-1.68,11.91-4.24,23.7-6.22,35.58-2.25,13.57-4.18,27.19-6.44,40.75-2.26,13.54-4.86,27.03-7.13,40.57-2.27,13.55-4.24,27.14-6.48,40.69-2.01,12.16-4.2,24.29-6.32,36.43-1.58,9.06-3.49,18.08-4.67,27.19-.66,5.13-2.6,10.24.56,15.68,4.99,8.57,6.94,11.24,18.19,11.32,17.56.12,35.12.11,52.67-.03,2.68-.02,5.6-.52,7.95-1.7,3.29-1.65,6.15-4.14,9.2-6.28.25.81.81,1.68.69,2.43-1.43,8.59-3.18,17.13-4.4,25.75-.69,4.9-1.3,10.02-.6,14.85.96,6.63,6.62,9.54,12.21,12.04Z" fill="#fff"/>
  <path d="m131.74,409.6c-5.59-2.5-11.25-5.41-12.21-12.04-.7-4.83-.09-9.95.6-14.85,1.21-8.62,2.96-17.16,4.4-25.75.12-.75-.44-1.61-.69-2.42,1.64-7.6,3.44-15.18,4.88-22.82,1.83-9.7,3.37-19.45,5.02-29.17,2.54-14.92,5.03-29.85,7.61-44.76.96-5.56,1.21-11.48,3.38-16.55,3.79-8.87,11.49-12.73,21.08-12.74,12.5-.01,25,.22,37.49-.08,8.96-.22,18.1-.18,26.82-1.94,23.29-4.7,44.5-14.12,63.09-29.39,18.36-15.08,32.22-33.42,40.69-55.44,4.28-11.13,6.44-23.08,9.56-34.67,8.35,5.59,14.99,12.88,20.42,21.23,6.14,9.44,10.38,19.88,11.15,31.04.71,10.25.06,20.68-.93,30.94-.67,6.83-2.39,13.71-4.75,20.16-2.57,7.03-6.63,13.51-9.68,20.38-2.92,6.59-8.15,11.41-12.26,17.08-7.45,10.29-17.66,17.47-27.83,24.73-13.46,9.61-28.81,14.37-44.75,17.5-5.77,1.13-11.68,1.73-17.55,2.12-7.91.53-15.94,0-23.76,1.08-7.89,1.1-13.78,6.72-17.1,13.38-3.1,6.22-4.19,13.54-5.54,20.49-2.4,12.38-4.38,24.84-6.43,37.28-1.68,10.17-3.33,20.35-4.77,30.56-.67,4.72-2.83,8.29-6.5,11.2-1.04.82-1.57,2.27-2.34,3.44h-59.08Z" fill="#0085cc"/>
  <path d="m343.46,106.97c-3.12,11.58-5.28,23.53-9.56,34.67-8.47,22.02-22.34,40.36-40.69,55.44-18.58,15.27-39.8,24.69-63.09,29.39-8.72,1.76-17.86,1.73-26.82,1.94-12.49.3-24.99.07-37.49.08-9.59,0-17.29,3.87-21.08,12.74-2.17,5.07-2.41,10.99-3.38,16.55-2.58,14.91-5.07,29.84-7.61,44.76-1.65,9.73-3.2,19.48-5.02,29.17-1.44,7.64-3.24,15.22-4.88,22.82-3.04,2.13-5.91,4.63-9.2,6.28-2.36,1.18-5.28,1.68-7.95,1.7-17.56.14-35.12.16-52.67.03-11.25-.08-13.2-2.74-18.19-11.32-3.16-5.43-1.22-10.54-.56-15.68,1.17-9.11,3.08-18.13,4.67-27.19,2.12-12.14,4.31-24.27,6.32-36.43,2.24-13.55,4.21-27.15,6.48-40.69,2.27-13.54,4.87-27.03,7.13-40.57,2.26-13.56,4.19-27.18,6.44-40.75,1.97-11.88,4.53-23.66,6.22-35.58,1.85-13.12,4.66-26.05,6.61-39.15,2.3-15.5,5.24-30.91,7.85-46.37.67-3.95.87-7.98,1.72-11.88C91.14,5.65,98.74.91,109.36.85c28.73-.15,57.46-.05,86.19-.05,17.29,0,34.59-.33,51.87.13,9.9.26,19.76,2.26,29.67,2.62,6.55.24,11.45,3.98,16.92,6.33,5.75,2.48,11.04,6.28,16.08,10.09,8.99,6.79,16.9,14.82,21.81,25.05,3.87,8.06,6.33,16.79,9.98,24.97,2.51,5.63,1.76,11.45,2.07,17.15.33,6.12-.67,12.31-1.04,18.47-.03.44.35.9.54,1.35Z" fill="#002987"/>
</svg>